<?xml version="1.0" encoding="utf-8"?>
<!-- Generator: Adobe Illustrator 24.0.0, SVG Export Plug-In . SVG Version: 6.00 Build 0)  -->
<svg version="1.1" id="Layer_1" xmlns="http://www.w3.org/2000/svg" xmlns:xlink="http://www.w3.org/1999/xlink" x="0px" y="0px"
	 viewBox="0 0 499.5 476.5" style="enable-background:new 0 0 499.5 476.5;" xml:space="preserve">
<style>
		svg{
		-webkit-transform: rotate(0deg);
		    -ms-transform: rotate(0deg);
		        transform: rotate(0deg);
		-webkit-animation: demo 3s ease-in-out infinite alternate;
		        animation: demo 3s ease-in-out infinite alternate;
		transorm-origin: center center;
	}
	@-webkit-keyframes demo{
		50%{
			-webkit-transform: rotate(5deg) scale(.83);
			        transform: rotate(5deg) scale(.83);
		}
	}
	@keyframes demo{
		50%{
			-webkit-transform: rotate(5deg) scale(.83);
			        transform: rotate(5deg) scale(.83);
		}
	}
	#topText
	{
	animation: demoTop 3s ease-in-out infinite alternate;
	}

	#bottomText
	{
	animation: demoBottom 3s ease-in-out infinite alternate;
	}
	@keyframes demoTop{
		from {opacity: 0; transform: translateY(15px)}

	}
	@keyframes demoBottom{
		from {opacity: 0; transform: translateY(-15px)}
	}
</style>
<g>
	<g>
		<path d="M115.6,251.6c-4.9,44.7-31.4,90.1-56.6,90.4c-4.2,0.1-9.7-1.8-12.8-6.5c-3.9,4-8.2,6.4-12.8,6.1
			c-7-0.3-12.2-5.9-13.8-13.8c4.8-9.3,9.5-18.6,14.3-28.1c0.2,0,0.4,0,0.5,0c0.6,4.7,3.3,6.5,6.2,6.6c12,0.3,17.2-29.1,27.1-56.4
			c7.8-21.6,16.7-39.3,25.2-44.2c-2.3-1-4.7-1.4-7.5-1.2c-15.6,1.3-30.8,17.9-33.2,38c-1.2,9.6,1,15.4,4.7,15.5c0,0.3,0,0.5,0.1,0.8
			c-5.2,11.2-10.4,22.3-15.6,33.2c-6.7-0.2-13.5-12.1-10.9-34c4.8-38.8,32.7-59.9,54.1-61.8C108.7,194.3,119.2,219.1,115.6,251.6z
			 M97.6,209c-6.5,4.5-11.4,17.8-18.3,41.6c-6.6,22.5-13,47.2-21.1,65.1c1.2,1.6,2.8,2.6,5,2.5c13.5-0.2,35.3-35.8,40.2-77.1
			C105.2,227,103.2,215.1,97.6,209z"/>
		<path d="M161.7,281.7c-4.8,12.2-9.2,19.6-15.8,20.8c-0.8,0.1-1.6,0.3-2.2,0.2c-5.7,9.8-12.6,16.9-19.9,18
			c-28.4,3.7-5-76.4,20.3-80.8c16.8-3.1,15.4,25.1,6.2,49.2c6.1-1.5,10.9-11.5,14.9-25.6C166.9,263.1,165.8,271.1,161.7,281.7z
			 M130.3,301.2c1.8-0.3,3.6-1.4,5.5-3.3c-5.4-11.2,4.4-38.3,14.3-40.1c0,0,0.1,0,0.1,0c0-6.1-1.7-10.1-6.1-9.3
			C130.2,250.9,116.1,303.4,130.3,301.2z"/>
		<path d="M206.2,284.4c-5.2,9.5-10.4,19.1-15.6,28.6c-6.7-0.7-10.5-10.1-9-23.4c2.3-18.9,12.4-39.2,13.4-47
			c0.2-2.1-0.3-2.8-1.5-2.5c-4.9,1.1-14.4,16.5-23.5,46c-2.6,9.3-5.2,18.5-7.8,27.8c-4.1,0.8-8.3,1.6-12.4,2.4
			c4.6-15.9,9.2-31.9,13.7-47.9c2-6.7,4.4-15.2,7.2-25.4c-0.3-0.8-0.5-1.7-0.8-2.5c0.7-1.2,1.3-2.3,2-3.5c3.9,2.5,12.5-2.7,16.3-5.4
			c0.1,1.1,0.1,2.3,0.2,3.4c0,0-3.3,1.2-6.5,11.1c-1.2,3.5-2.6,7.9-4.1,12.7c5.8-14.3,13.3-27.9,22.1-29.9c5.4-1.3,7.2,4.1,6.2,12.5
			c-1.2,11.5-6.2,19.2-7.4,28.9c-1.2,10.7,4.7,13,7.3,12.4C206.1,283.3,206.2,283.9,206.2,284.4z"/>
		<path d="M349,144.9c-6.1,9.3-13.9,27.2-17.5,37.3c-1.7,0.3-3.3,0.5-5,0.8c5-17.2,4.9-28.4-1.4-27.1c-7.3,1.5-16.4,18.8-25.7,50.9
			c-7.3,24.8-15.8,54.2-25.1,78.4c14.7,6.9,29.9,16,41.9,6.5c0.2,0.2,0.3,0.5,0.5,0.7c-5.3,12.3-10.6,24.7-15.9,37.1
			c-12.9,3-23.9-13.8-33.6-27.2c-7.9,17.1-16.5,29.4-25.3,31.6c-10.4,2.6-16.8-7.7-15-22.1c1.6-12.7,9.9-29,22.8-32.2
			c3.4-0.8,7.2-0.5,11.1,0.3c7.5-16.8,14.4-40.4,18.7-53.4c17.1-53.6,32.9-78.5,47.6-81.5c10.6-2.1,8.7,7.2,19.8-2.7
			C347.5,143.2,348.3,144.1,349,144.9z M256,289.2c-2.5-2-5-3.1-7.4-2.5c-2.6,0.7-5.4,3.2-5.9,7c-0.4,3.4,1,6.1,4.1,5.3
			C249.6,298.4,252.8,294.7,256,289.2z"/>
		<path d="M353.4,238.2c-5.9,16-12.8,35.2-23.1,37.3c-6.3,1.3-10.3-6.9-7.9-21.3c-5.1,12.9-11.5,25.4-18.4,26.9
			c-7.1,1.6-11.6-9.6-6-29.1c2.6-9,6.2-21.5,12.2-42.2c0.2-1.1-0.7-2.1-1-2.4c0.7-1.2,1.3-2.3,2-3.5c3.9,2.4,12.5-2.7,16.3-5.3
			c0.1,1.1,0.1,2.3,0.2,3.4c0,0-3.2,1.1-6.4,10.9c-5,15-15.3,47.1-8.5,45.6c0,0,0.1,0,0.1,0c0,0,0.1,0,0.1,0
			c7.4-1.6,17.6-34.6,17.6-34.6c0,0.1,0,0.1,0,0.2c1.9-6.6,3.8-13.2,5.7-19.8c0.2-1.1-0.7-2.1-1-2.5c0.7-1.2,1.3-2.3,2-3.5
			c3.9,2.5,12.5-2.4,16.3-4.9c0.1,1.1,0.1,2.3,0.2,3.4c0,0-3.2,1-6.4,10.8c-5,14.8-15.5,46.7-7,45.1c6.1-1.2,13.3-23.3,13.3-23.3
			C354.7,229.4,356.7,229.7,353.4,238.2z"/>
		<path d="M392.5,232.6c-9,22.9-17.7,35.3-27.5,36.9c-11.7,1.9-17.6-9-15.7-26.4c2.5-21.3,15.5-51.3,30.5-53.3
			c1.8-0.3,12.1-1.1,10.2,15.3c-0.9,7.5-4.8,17.3-8.6,23.6c-3.2-2.2-7.4-4.5-4.6-11.4c2.6-6.5,8.2-19.3,2.7-18.6
			c-6.3,0.8-15.2,18.8-16.8,33c-1.3,10.7,1.4,17.3,10.5,16c5.9-0.9,14-6.2,19.8-23.6C393.8,223.8,396.4,222.9,392.5,232.6z"/>
		<path d="M444,229.6c-5.7,14.9-13.9,33.2-24.2,33.8c-5.4,0.3-9.3-8.2-7-21.8c-4.9,12.2-10.7,23.1-17.3,23.8
			c-20.3,2.5-0.9-77.9,22.2-79.4c5-0.3,7.6,3.3,9,7.1c0.6-1.9,1.2-3.9,1.8-5.8c3.8,3.3,11.9-0.3,15.6-2.1c0.1,1.2,0.1,2.3,0.2,3.5
			c0,0-3.4,0.6-6.7,9.9c-4.8,14-15.2,44-6.7,43.7c6.1-0.2,13.5-21.3,13.5-21.3C445.5,221,447.3,221,444,229.6z M420.6,213.6
			c1.1-3.6,2.1-7.2,3.2-10.8c0.3-4.9-1.5-8.3-4.3-8.2c-10.8,0.6-24.6,49.7-14.9,48.7C410.2,242.9,417.1,224.2,420.6,213.6z"/>
		<path d="M472.7,231.1c-1.2,14.1-10.3,32.2-25.2,32c-9.6-0.1-14.5-8.9-12.7-23.4c1-8.6,5.4-17.1,10.1-20.6
			c6.3-14.3,15.7-29.7,16.8-31.5c2.2-4.2,5.3-6.5,8.4-6.3c3.6,0.3,6.4,4,5.9,8.4c-0.4,0.6-0.9,1.1-1.3,1.7c-1.9-2.2-4.6,0.7-5.2,6.8
			C468.5,206.4,474,216.2,472.7,231.1z M461.6,225.1c0.7-8-3.6-16.1-3.1-24.9c-3,5.2-6.3,11.7-8.8,17.2c4.5,0.3,5.8,4.8,5.1,9.7
			c-0.5,0.7-1.1,1.3-1.6,2c-0.2-1-0.6-1.9-1.6-1.9c-2,0-4.1,3-4.6,7.1c-0.5,3.9,1.3,7.4,4.5,7.4C456.1,241.8,460.7,235,461.6,225.1z
			"/>
	</g>
</g>
<g>
	<path d="M153.2,200.9l0.9-0.1l-0.3,1.6l-1.3,9l-18.8,2.6l-6.3-5.4v-31.4l6.3-7.2l18.8-2.6l1.3,8.6l0.3,1.5l-0.9,0.1l-3.1-1.1
		l-10.7,1.5l-1.8,2.1v22.7l1.8,1.6l10.7-1.5L153.2,200.9z"/>
	<path d="M196.5,204.3v0.9l-12.9,1.8v-0.9l1.2-1.4l-0.9-4.3l-10.1,1.4l-0.9,4.6l1.2,1v0.9l-12.9,1.8v-0.9l1.5-1.7l8.4-37.6l-1.1-0.9
		v-0.9l16-2.3L195,203L196.5,204.3z M182.4,192.4l-3.3-17.1l-0.3,0l-3.3,18L182.4,192.4z"/>
	<path d="M231.5,169.8l-0.9,0.1l-3.1-1.1l-11.2,1.6v8.8l6.8-1l1.6-1.8l0.9-0.1v11.9l-0.9,0.1l-1.6-1.4l-6.8,1v11.9l1.6,1.4v0.9
		l-13.2,1.9v-0.9l1.6-1.8v-35.8l-1.6-1.3v-0.9l25.3-3.6l1.3,8.6L231.5,169.8z"/>
	<path d="M266.2,185l0.9-0.1l-0.3,1.6l-1.3,9l-25.3,3.6v-0.9l1.6-1.8v-35.8l-1.6-1.3v-0.9l25.3-3.6l1.3,8.6l0.3,1.5l-0.9,0.1
		l-3.1-1.1l-11.2,1.6v6.9l6.8-1l1.6-1.8l0.9-0.1v11.9l-0.9,0.1l-1.6-1.3l-6.8,1v7.5l11.2-1.6L266.2,185z M249.3,152.9l4.5-0.6
		l6.9-10.3l-8.4,1.2L249.3,152.9z"/>
</g>
<g id="topText">
	<g>
		<path d="M64.8,151.9l0.3,0.9l6.7,2.8l1.4,3.5l-2.8,6.6l-3.5,1.4L54.9,162l-1.4-3.5l3.2-7.6l3.6,1l0.6,0.2l-0.2,0.4l-1.1,0.9
			l-1.9,4.4l0.4,1l8.8,3.7l1-0.4l1-2.2l-0.4-1l-2.6-1.1l-0.6,1.5l-3.7-0.7l2.9-6.7L64.8,151.9z"/>
		<path d="M74.6,121.9l0.2,0.9l11.4,7l0.8,3.6l-3.8,6.1l-3.6,0.9l-11.4-7l-0.9,0.2l-0.3-0.2l2.9-4.7l0.3,0.2l0.2,0.9l9.9,6.1
			l1.1-0.3l1.3-2.1l-0.2-1.1l-9.9-6.1l-0.9,0.2l-0.3-0.2l2.9-4.7L74.6,121.9z"/>
		<path d="M106.7,107.2l0.3,0.3l-3.5,4.2l-0.3-0.3l-0.1-0.7l-1.7-0.9l-2.7,3.2l1.2,1.5l0.7-0.1l0.3,0.3l-3.5,4.2l-0.3-0.3l-0.1-0.9
			l-9.3-12.5l-0.6,0.1l-0.3-0.3l4.4-5.2l14.7,7.5L106.7,107.2z M98.4,108.1l-6.5-3.7l-0.1,0.1l4.7,5.8L98.4,108.1z"/>
		<path d="M117.6,79.8l-0.3,0.3l-1.4,0.4l-1.9,1.7l8.2,9.2l0.9,0l0.3,0.3l-4.2,3.7l-0.3-0.3l0.1-0.9l-8.2-9.2l-1.9,1.7l-0.5,1.4
			l-0.3,0.3l-0.4-0.6l-2.1-3.1l8.6-7.7l2.9,2.4L117.6,79.8z"/>
		<path d="M145.2,70.1l0.3-0.2l0.3,0.6l1.6,3.4l-8.9,5.9l-0.2-0.3l0.2-0.9L130.1,66l-0.9-0.2l-0.2-0.3l8.9-5.9l2.5,2.8l0.5,0.5
			l-0.3,0.2l-1.4,0.2l-3.9,2.6l1.6,2.4l2.4-1.6l0.2-0.9l0.3-0.2l2.8,4.2l-0.3,0.2l-0.9-0.2l-2.4,1.6l1.8,2.6l3.9-2.6L145.2,70.1z"/>
		<path d="M171,43.6l6.2,13.6l0.9,0.3l0.2,0.4l-5.1,2.3l-0.2-0.4l0.3-0.9l-3.5-7.6l-1,6.1l-1.4,0.6l-5.3-3.3l3.5,7.6l0.9,0.3
			l0.2,0.4l-5.1,2.3l-0.2-0.4l0.3-0.9l-6.2-13.6l-0.9-0.3l-0.2-0.4l4-1.8l7.2,4.4l1.4-8.3l4-1.8l0.2,0.4L171,43.6z"/>
		<path d="M207.2,48.5l0.1,0.4l-5.3,1.4l-0.1-0.4l0.4-0.6l-0.8-1.7l-4.1,1.1l0.1,1.9l0.6,0.4l0.1,0.4l-5.3,1.4l-0.1-0.4l0.5-0.8
			L192.7,36l-0.6-0.3l-0.1-0.4l6.5-1.8l7.8,14.5L207.2,48.5z M199.9,44.5l-3.3-6.7l-0.1,0l0.5,7.4L199.9,44.5z"/>
		<path d="M232.9,40.5l0,0.7l-0.1,3.7l-10.1,1.2l0-0.4l0.6-0.7l-1.8-14.9l-0.7-0.6l0-0.4l5.5-0.7l0,0.4l-0.6,0.7l1.5,12.3l4.2-0.5
			l1.2-0.8L232.9,40.5z"/>
		<path d="M263.1,44l0,0.4l-5.4-0.1l0-0.4l0.5-0.5l-0.3-1.9l-4.2-0.1l-0.4,1.9l0.5,0.5l0,0.4l-5.4-0.1l0-0.4l0.7-0.6l3.9-15.1
			l-0.5-0.5l0-0.4l6.8,0.2l3.3,16.2L263.1,44z M257.3,38.1l-1.2-7.4l-0.1,0l-1.6,7.3L257.3,38.1z"/>
		<path d="M294.2,32.5l-2.7,14.8L292,48l-0.1,0.4l-4.3-0.8l-2.7-9.6l-1.4,7.8l0.5,0.8L284,47l-5.4-1l0.1-0.4l0.8-0.5l2.7-14.8
			l-0.5-0.8l0.1-0.4L286,30l2.7,9.6l1.4-7.8l-0.5-0.8l0.1-0.4l5.4,1l-0.1,0.4L294.2,32.5z"/>
		<path d="M340.2,57.7l-1.9,4.2l-3.5,1.3l-9.3-4.3l0.2-0.4l0.9-0.3l6.8-14.8l-0.3-0.9l0.2-0.4l9.1,4.1l1.3,3.5l-1.9,4.2l-2.6,0.9
			L340.2,57.7z M336.3,56.2l-0.4-1l-2.7-1.2l-1.7,3.7l2.7,1.2l1-0.4L336.3,56.2z M334.6,50.8l2.4,1.1l1-0.4l0.8-1.8l-0.4-1l-2.4-1.1
			L334.6,50.8z"/>
		<path d="M362.8,79.1l-0.2,0.3l-4.6-3l0.2-0.3l0.7-0.3l1.3-4.5l-1.3-0.8l-2.5,3.7l0.2,0.9l-0.2,0.3l-4.7-3.1l0.2-0.3l0.9-0.2
			l8.2-12.5l-0.2-0.9l0.2-0.3l8.5,5.6l0.8,3.7l-3.5,5.3l-2.9,0.6l-1.4,5.2L362.8,79.1z M360.9,67.3l2.5,1.6l1.1-0.2l1.5-2.2
			l-0.2-1.1l-2.5-1.6L360.9,67.3z"/>
		<path d="M386.2,98.4l-0.3,0.3l-4.1-3.6l0.3-0.3l0.7,0l1-1.6l-3.2-2.8l-1.5,1.1l0,0.7l-0.3,0.3l-4.1-3.6l0.3-0.3l0.9,0l12.8-9
			l-0.1-0.7l0.3-0.3l5,4.5l-7.9,14.5L386.2,98.4z M385.6,90.1l3.9-6.4l-0.1-0.1l-5.9,4.5L385.6,90.1z"/>
		<path d="M417.3,109.9l-11.6,9.5l-0.1,0.9l-0.3,0.3l-2.8-3.4l4.2-9.1l-6.1,5l-0.1,0.9l-0.3,0.3l-3.5-4.2l0.3-0.3l0.9,0.1l11.6-9.5
			l0.1-0.9l0.3-0.3l2.8,3.4l-4.1,9.1l6.1-5l0.1-0.9l0.3-0.3l3.5,4.2l-0.3,0.3L417.3,109.9z"/>
		<path d="M433.5,137.8l-9.7,5.8l-4-1l-5.1-8.6l0.3-0.2l0.9,0.2l12.9-7.6l0.2-0.9l0.3-0.2l5.1,8.6L433.5,137.8z M420.4,136.3
			l1.5,2.5l1,0.3l7.1-4.2l0.3-1.1l-1.5-2.5L420.4,136.3z"/>
	</g>
</g>
<g id="bottomText">
	<g>
		<path d="M109.3,383l0,1.1l-1,1l-1.1,0l-6.1-6.3l0-1.1l1-1l1.1,0L109.3,383z"/>
		<path d="M137.5,417.7l-0.2,0.3l-4.7-3l0.2-0.3l0.9-0.2l7.6-11.7l-1.2-0.8l1.1-1.7l2.7,0l2.9,1.9l-9.5,14.5L137.5,417.7z"/>
		<path d="M170.7,418.2L165,430l-3.5,1.2l-5.7-2.8l-1.2-3.5l5.7-11.8l3.5-1.2l5.7,2.8L170.7,418.2z M165.7,417l-1.5-0.7l-1,0.4
			l-4.1,8.6l0.4,1l1.5,0.7l1-0.4l4.1-8.6L165.7,417z"/>
		<path d="M197.1,427.8l-4,12.5l-3.3,1.7l-6.1-1.9l-1.7-3.3l4-12.5l3.3-1.7l6.1,1.9L197.1,427.8z M192,427.3l-1.6-0.5l-1,0.5
			l-2.9,9.1l0.5,1l1.6,0.5l1-0.5l2.9-9.1L192,427.3z"/>
		<path d="M217.1,438.4l-3.3-0.5l-1.5-2l0.8-5.2l2-1.5l3.3,0.5l1.5,2l-0.8,5.2L217.1,438.4z M215.1,446.9l-0.5,1l-0.4-0.1l0.1-0.4
			L215.1,446.9z M218.2,447.4l0.2,0.6l-0.1,0.4l-3.8-0.6l8.8-16.3l-0.2-0.6l0.1-0.4l3.8,0.6L218.2,447.4z M217.4,432.7l-0.5-0.6
			l-1.1-0.2l-0.6,0.5l-0.4,2.7l0.5,0.6l1,0.1l0.7-0.5L217.4,432.7z M229.3,443l-0.8,5.2l-2,1.5l-3.3-0.5l-1.5-2l0.8-5.2l2-1.5
			l3.3,0.5L229.3,443z M226.8,443.9l-0.5-0.6l-1.1-0.2l-0.6,0.5l-0.4,2.7l0.5,0.6l1,0.1l0.7-0.5L226.8,443.9z M226.5,432.1l0.5-1
			l0.4,0.1l-0.1,0.4L226.5,432.1z"/>
		<path d="M278.2,433.3l1.4,13.1l-2.4,2.9l-7.1,0.8l-2.9-2.3l-1.4-13.1l2.4-2.9l7.1-0.8L278.2,433.3z M273.3,434.8l-2.4,0.3
			l-0.7,0.8l1,9.5l0.8,0.7l2.4-0.3l0.7-0.8l-1-9.5L273.3,434.8z"/>
		<path d="M310.9,441.9l0.1,0.4l-5.3,1.4l-0.1-0.4l0.2-0.7l-2.5-4l-1.5,0.4l1.1,4.3l0.8,0.5l0.1,0.4l-5.4,1.4l-0.1-0.4l0.5-0.8
			l-3.8-14.5l-0.8-0.5l-0.1-0.4l9.9-2.6l3.2,1.9l1.6,6.1l-1.5,2.5l2.9,4.5L310.9,441.9z M300.9,435.4l2.9-0.7l0.6-0.9l-0.7-2.6
			l-0.9-0.5l-2.9,0.7L300.9,435.4z"/>
		<path d="M336.9,421.7l-0.3,0.9l2.7,6.2l-1.4,3.5l-6.6,2.8l-3.5-1.4l-4.7-10.9l1.4-3.5l7.6-3.3l1.9,3.2l0.4,0.6L334,420l-1.5-0.1
			l-4.4,1.9l-0.4,1l3.2,7.5l1,0.4l2.2-1l0.4-1l-0.9-2.1l-1.5,0.6l-2.2-3.1l6.7-2.9L336.9,421.7z"/>
		<path d="M368.8,414.7l0.2,0.3l-4.6,2.9l-0.2-0.3l0.2-0.7l-1.3-1.4l-3.6,2.2l0.7,1.8l0.7,0.2l0.2,0.3l-4.6,2.9l-0.2-0.3l0.2-0.9
			l-5-14.8l-0.6-0.1l-0.2-0.3l5.8-3.6l11.7,11.7L368.8,414.7z M360.7,412.9l-5.1-5.5l-0.1,0.1l2.7,7L360.7,412.9z"/>
		<path d="M382.8,383.8l9.7,11.4l0.9,0.1l0.3,0.3l-3.3,2.8l-9.2-4l5.1,6l0.9,0.1l0.3,0.3l-4.1,3.5l-0.3-0.3l0.1-0.9l-9.7-11.4
			l-0.9-0.1l-0.3-0.3l3.3-2.8l9.1,3.9l-5.1-6l-0.9-0.1l-0.3-0.3l4.1-3.5l0.3,0.3L382.8,383.8z"/>
		<path d="M398.2,368.1l11.2,10l0.9-0.1l0.3,0.3l-3.7,4.1l-0.3-0.3l0-0.9l-11.2-10l-0.9,0.1l-0.3-0.3l3.7-4.1l0.3,0.3L398.2,368.1z"
			/>
		<path d="M424.9,352.4l0.2-0.3l0.5,0.5l2.7,2.5l-4.5,6.5l-3.7,0.7l-9.7-6.8l-0.6-3.7l4.5-6.5l3.3,1.7l0.6,0.3l-0.2,0.3l-1.3,0.7
			l-2.6,3.7l0.2,1.1l6.7,4.7l1.1-0.2l2.6-3.7L424.9,352.4z"/>
		<path d="M440.7,308l1-0.4l1.3,0.5l0.4,1l-3.2,8.2l-1,0.4l-1.3-0.5l-0.4-1L440.7,308z"/>
	</g>
</g>
<g>
	<path d="M191.9,377.8h0.5l-0.1,0.8l-0.7,4.6h-13.4v-0.5l0.8-0.8v-20.5l-0.8-0.8v-0.5h13.4l0.7,4.6l0.1,0.8h-0.5l-1.6-0.8h-5.9v4.3
		h3.6l0.8-0.8h0.5v6.3h-0.5l-0.8-0.8h-3.6v5h5.9L191.9,377.8z"/>
	<path d="M202.6,367.5l8.4,5.2v7.1l-3.3,3.3H198l-0.7-4.6l-0.1-0.8h0.5l1.6,0.8h5.3l1-1v-2.2l-8.4-5.2v-6.7l3.3-3.3h10l0.7,4.6
		l0.1,0.8h-0.5l-1.6-0.8h-5.7l-1,1V367.5z"/>
	<path d="M232,365.6h-0.5l-1.6-0.8h-3.3v17.2l0.8,0.8v0.5h-7v-0.5l0.8-0.8v-17.2H218l-1.6,0.8h-0.5l0.1-0.8l0.7-4.6h14.5l0.7,4.6
		L232,365.6z"/>
	<path d="M239.5,378.6l1,1v2.7l-1,1h-2.7l-1-1v-2.7l1-1H239.5z"/>
	<path d="M267.4,377.8l-0.1,0.8l-0.7,4.6h-12.9v-8.4l8.4-7.2v-1.8l-1-1h-5.7l-1.6,0.8h-0.5l0.1-0.8l0.7-4.6h10l3.3,3.3v6.1l-8.4,7.2
		v1.9h6.3l1.6-0.8H267.4z"/>
	<path d="M287.4,363.4v16.5l-3.3,3.3h-8l-3.3-3.3v-16.5l3.3-3.3h8L287.4,363.4z M281.1,364.7h-2.1l-1,1v11.9l1,1h2.1l1-1v-11.9
		L281.1,364.7z"/>
	<path d="M299.8,382.7v0.5h-7v-0.5l0.8-0.8v-17.5h-1.8v-2.5l2.8-1.8h4.3v21.8L299.8,382.7z"/>
	<path d="M319.9,373v6.9l-3.3,3.3h-8.1l-3.3-3.3V373l2-2l-1.4-1.4v-6.2l3.3-3.3h6.8l3.3,3.3v6.2l-1.4,1.4L319.9,373z M314.6,374.6
		l-1-1h-2.2l-1,1v3l1,1h2.2l1-1V374.6z M311.1,368l1,1h0.9l1-1v-2.3l-1-1h-0.9l-1,1V368z"/>
</g>
</svg>
